<svg width="30" height="30" viewBox="0 0 30 30" fill="none" xmlns="http://www.w3.org/2000/svg">
<path d="M15.8543 17.0074C15.8859 17.2746 16.113 17.4756 16.3816 17.4756C16.6508 17.4756 16.8778 17.2746 16.9095 17.0074L16.9955 16.2891H15.7683L15.8543 17.0074Z" fill="#E46161"/>
<path d="M16.3956 8.9127H16.3815C14.9524 8.9127 13.8196 10.0441 13.8196 11.4746C13.8196 12.3907 14.3086 13.2394 15.1041 13.6986C15.344 13.8369 15.5043 14.0807 15.5371 14.3555L15.5582 14.5313H17.2055L17.2266 14.3555C17.2594 14.0807 17.4198 13.8369 17.6597 13.6986C18.4515 13.2416 18.9436 12.3897 18.9436 11.4762C18.9435 10.0699 17.8007 8.91973 16.3956 8.9127Z" fill="#E46161"/>
<path d="M16.3184 0C14.5757 0 12.861 0.389063 11.3623 1.12383C8.67727 2.39004 4.64947 5.80447 4.64947 11.6719V13.5369L2.33854 17.7533C2.16639 18.0797 2.08008 18.4202 2.08008 18.7438C2.08008 19.0428 2.15379 19.3273 2.30168 19.5727C2.57965 20.035 3.08994 20.2998 3.70031 20.2998H4.64953V24.3979C4.64953 25.8117 5.79357 26.9619 7.19977 26.9619L7.22262 26.9602L10.3552 26.4814V29.5014C10.3552 29.7768 10.5782 30 10.8533 30H19.829C22.2388 30 24.1999 28.0377 24.1999 25.6254V20.2072C26.5646 18.0018 27.92 14.8951 27.92 11.6713C27.8947 5.23594 22.6906 0 16.3184 0V0ZM15.499 4.39453C15.499 3.90937 15.8923 3.51562 16.3768 3.51562C16.862 3.51562 17.2546 3.90937 17.2546 4.39453V5.12578C17.2546 5.61094 16.8619 6.00469 16.3768 6.00469C15.8923 6.00469 15.499 5.61094 15.499 5.12578V4.39453ZM10.0327 12.3053H9.3024C8.81725 12.3053 8.42461 11.9115 8.42461 11.4264C8.42461 10.9406 8.81731 10.5475 9.3024 10.5475H10.0327C10.5179 10.5475 10.9105 10.9406 10.9105 11.4264C10.9105 11.9115 10.5179 12.3053 10.0327 12.3053ZM11.0404 7.73672L10.5237 7.21992C10.3524 7.04818 10.2667 6.82307 10.2667 6.59795C10.2667 6.1132 10.6589 5.71904 11.1442 5.71904C11.3688 5.71904 11.5934 5.80488 11.7649 5.97656L12.2816 6.49336C12.4532 6.6651 12.5389 6.89021 12.5389 7.11533C12.5389 7.34021 12.4533 7.5651 12.2822 7.73672C12.1107 7.9084 11.886 7.99395 11.6613 7.99395C11.4365 7.99395 11.2119 7.9084 11.0404 7.73672ZM18.9207 14.9713L18.6527 17.216C18.5152 18.3662 17.5391 19.2334 16.3816 19.2334C15.2246 19.2334 14.2485 18.3662 14.111 17.216L13.8424 14.9713C12.7313 14.162 12.0643 12.864 12.0643 11.4742C12.0643 9.07934 13.9821 7.15488 16.381 7.15488H16.405C18.7727 7.16719 20.6992 9.10605 20.6992 11.4762C20.6991 12.8625 20.0279 14.1633 18.9207 14.9713ZM21.093 7.99395C20.6065 7.99395 20.2151 7.59978 20.2151 7.11533C20.2151 6.89021 20.3009 6.6651 20.4721 6.49336L20.9889 5.97656C21.1603 5.80488 21.385 5.71904 21.6098 5.71904C21.8345 5.71904 22.0592 5.80488 22.2307 5.97656C22.4018 6.14818 22.4874 6.37307 22.4874 6.59795C22.4874 6.82307 22.4017 7.04818 22.2301 7.21992L21.7134 7.73672C21.5418 7.9084 21.3177 7.99395 21.093 7.99395ZM23.4431 12.3053H22.7128C22.2277 12.3053 21.835 11.9115 21.835 11.4264C21.835 10.9406 22.2277 10.5475 22.7128 10.5475H23.4431C23.9283 10.5475 24.3209 10.9406 24.3209 11.4264C24.3209 11.9115 23.9283 12.3053 23.4431 12.3053Z" fill="#E46161"/>
</svg>
