<svg width="30" height="30" viewBox="0 0 30 30" fill="none" xmlns="http://www.w3.org/2000/svg">
<g clip-path="url(#clip0)">
<path d="M29.6334 27.8669L21.1023 19.3357C22.7548 17.2945 23.7498 14.7007 23.7498 11.8758C23.7498 5.32835 18.4223 0.00088501 11.8748 0.00088501C5.32741 0.00088501 0 5.32829 0 11.8757C0 18.4232 5.32747 23.7506 11.8749 23.7506C14.6999 23.7506 17.2936 22.7557 19.3348 21.1032L27.866 29.6343C28.1097 29.8781 28.4297 30.0006 28.7497 30.0006C29.0698 30.0006 29.3898 29.8781 29.6335 29.6343C30.1222 29.1456 30.1222 28.3556 29.6334 27.8669ZM11.8749 21.2506C6.70494 21.2506 2.5 17.0457 2.5 11.8757C2.5 6.70576 6.70494 2.50082 11.8749 2.50082C17.0449 2.50082 21.2498 6.70576 21.2498 11.8757C21.2498 17.0457 17.0448 21.2506 11.8749 21.2506Z" fill="white"/>
</g>
<defs>
<clipPath id="clip0">
<rect width="30" height="30" fill="white"/>
</clipPath>
</defs>
</svg>
