<svg width="30" height="30" viewBox="0 0 30 30" fill="none" xmlns="http://www.w3.org/2000/svg">
<g clip-path="url(#clip0)">
<path d="M27.9366 14.9606V21.7955H18.7042V14.9606C16.6612 13.6084 15.3111 11.4207 15.0071 9.00764H14.941V8.12874H11.9659L10.7932 5.78339H-0.0585938V28.746H29.9407V13.0966C29.3848 13.8155 28.7109 14.4484 27.9366 14.9606ZM3.45909 21.7092V19.9514H10.4315V21.7092H3.45909ZM10.4315 23.4698V25.2276H3.45909V23.4698H10.4315Z" fill="#353337"/>
<path d="M20.462 18.0581H26.1791V20.0377H20.462V18.0581Z" fill="#353337"/>
<path d="M20.0217 13.7096L20.4621 13.9632V16.3005H22.4417V11.6869L19.8823 9.12781L21.1254 7.88498L23.3206 10.0802L25.5155 7.88498L26.7586 9.12781L24.1995 11.6869V16.3005H26.1788V13.9632L26.6192 13.7096C28.6684 12.5292 29.9414 10.3294 29.9414 7.96852C29.9414 6.20705 29.2573 4.54903 28.0152 3.30002C26.7737 2.05147 25.1207 1.35818 23.3606 1.34789C23.3473 1.34766 23.3341 1.34766 23.3208 1.34766C21.5696 1.34766 19.9159 2.03339 18.6605 3.28171C17.396 4.53873 16.6995 6.20338 16.6995 7.96875C16.6997 10.3294 17.9725 12.5292 20.0217 13.7096Z" fill="#353337"/>
</g>
<defs>
<clipPath id="clip0">
<rect width="30" height="30" fill="white"/>
</clipPath>
</defs>
</svg>
