<svg width="114" height="114" viewBox="0 0 114 114" fill="none" xmlns="http://www.w3.org/2000/svg">
<path d="M18.8864 102.267H33.0251C33.9333 102.267 34.6692 101.487 34.6692 100.525V67.2794C34.6692 66.3175 33.9333 65.5375 33.0251 65.5375H18.8864C17.9782 65.5375 17.2423 66.3175 17.2423 67.2794V100.525C17.2423 101.487 17.9785 102.267 18.8864 102.267Z" fill="#fff"/>
<path d="M51.9875 73.4505H78.2922C80.1052 73.4505 81.5802 71.8876 81.5802 69.9666C81.5802 68.0456 80.1052 66.4827 78.2922 66.4827H51.9875C50.1745 66.4827 48.6994 68.0456 48.6994 69.9666C48.6994 71.8876 50.1748 73.4505 51.9875 73.4505Z" fill="#fff"/>
<path d="M51.9875 87.3861H78.2922C80.1052 87.3861 81.5802 85.8232 81.5802 83.9022C81.5802 81.9812 80.1052 80.4183 78.2922 80.4183H51.9875C50.1745 80.4183 48.6994 81.9812 48.6994 83.9022C48.6994 85.8232 50.1748 87.3861 51.9875 87.3861Z" fill="#fff"/>
<path d="M51.9875 101.322H78.2922C80.1052 101.322 81.5802 99.7588 81.5802 97.8378C81.5802 95.9168 80.1052 94.3539 78.2922 94.3539H51.9875C50.1745 94.3539 48.6994 95.9168 48.6994 97.8378C48.6994 99.7588 50.1748 101.322 51.9875 101.322Z" fill="#fff"/>
<path d="M110.766 0H21.6987C19.9152 0 18.4645 1.53745 18.4645 3.42747V18.6932H12.4408C10.6573 18.6932 9.20662 20.2307 9.20662 22.12V37.3785H3.23415C1.4507 37.3785 0 38.9159 0 40.8059V110.573C0 112.463 1.4507 114 3.23415 114H92.3013C94.0848 114 95.5355 112.463 95.5355 110.573V95.3148H101.508C103.291 95.3148 104.742 93.7773 104.742 91.8873V76.6215H110.766C112.549 76.6215 114 75.0841 114 73.1947V3.42747C114 1.53745 112.549 0 110.766 0ZM91.1127 7.30401C92.9287 7.30401 94.4007 8.86375 94.4007 10.7879C94.4007 12.7121 92.9287 14.2718 91.1127 14.2718C89.2967 14.2718 87.8246 12.7121 87.8246 10.7879C87.8246 8.86375 89.2963 7.30401 91.1127 7.30401ZM85.7995 48.1664C85.7995 50.0905 84.3274 51.6503 82.5114 51.6503C80.6954 51.6503 79.2233 50.0905 79.2233 48.1664C79.2233 46.2429 80.6954 44.6825 82.5114 44.6825C84.3274 44.6825 85.7995 46.2429 85.7995 48.1664ZM81.8538 32.9651C80.0378 32.9651 78.5657 31.405 78.5657 29.4811C78.5657 27.557 80.0378 25.9972 81.8538 25.9972C83.6698 25.9972 85.1418 27.557 85.1418 29.4811C85.1418 31.405 83.6701 32.9651 81.8538 32.9651ZM81.2484 7.30401C83.0644 7.30401 84.5365 8.86375 84.5365 10.7879C84.5365 12.7121 83.0644 14.2718 81.2484 14.2718C79.4324 14.2718 77.9604 12.7121 77.9604 10.7879C77.9604 8.86375 79.4321 7.30401 81.2484 7.30401ZM71.9895 25.9972C73.8055 25.9972 75.2776 27.557 75.2776 29.4811C75.2776 31.405 73.8055 32.9651 71.9895 32.9651C70.1735 32.9651 68.7014 31.405 68.7014 29.4811C68.7014 27.557 70.1735 25.9972 71.9895 25.9972ZM75.9352 48.1664C75.9352 50.0905 74.4632 51.6503 72.6471 51.6503C70.8311 51.6503 69.3591 50.0905 69.3591 48.1664C69.3591 46.2429 70.8311 44.6825 72.6471 44.6825C74.4635 44.6825 75.9352 46.2429 75.9352 48.1664ZM62.7829 44.6825C64.5989 44.6825 66.071 46.2429 66.071 48.1664C66.071 50.0905 64.5989 51.6503 62.7829 51.6503C60.9669 51.6503 59.4948 50.0905 59.4948 48.1664C59.4948 46.2429 60.9669 44.6825 62.7829 44.6825ZM92.2474 110.516H3.28808V59.5476H92.2474V110.516ZM91.718 32.9651C89.902 32.9651 88.4299 31.405 88.4299 29.4811C88.4299 27.557 89.902 25.9972 91.718 25.9972C93.534 25.9972 95.0061 27.557 95.0061 29.4811C95.0061 31.405 93.5343 32.9651 91.718 32.9651ZM101.454 91.8309H95.5355V40.8617H101.454V91.8309ZM100.977 14.2718C99.1609 14.2718 97.6888 12.7121 97.6888 10.7879C97.6888 8.86375 99.1609 7.30401 100.977 7.30401C102.793 7.30401 104.265 8.86375 104.265 10.7879C104.265 12.7121 102.793 14.2718 100.977 14.2718ZM110.712 73.1376H104.742V22.1684H110.712V73.1376Z" fill="#fff"/>
</svg>
